<svg height="512pt" viewBox="0 -2 512.00238 512" width="512pt" xmlns="http://www.w3.org/2000/svg"><path d="m282.113281 153.234375c5.34375-6.519531 8.550781-14.855469 8.550781-23.9375 0-20.867187-16.914062-37.785156-37.785156-37.785156-20.867187 0-37.78125 16.917969-37.78125 37.785156 0 9.082031 3.207032 17.417969 8.550782 23.9375zm0 0" fill="#ffeb99"/><path d="m56.601562 254.550781 24.242188-21.808593c12.007812-10.800782 9.953125-30.15625-4.035156-38.230469-20.605469-11.894531-47.863282-23.246094-61.863282-10.652344-14 12.589844-5.589843 40.898437 4.066407 62.640625 6.550781 14.761719 25.582031 18.847656 37.589843 8.050781zm0 0" fill="#ff97bd"/><path d="m465.738281 319.878906h-21.324219c-8.394531 0-15.199218-6.804687-15.199218-15.199218 0-8.394532 6.804687-15.199219 15.199218-15.199219h21.324219c4.613281 0 8.363281-3.753907 8.363281-8.363281v-20.417969c0-8.394531 6.804688-15.199219 15.199219-15.199219s15.199219 6.804688 15.199219 15.199219v20.417969c0 21.375-17.386719 38.761718-38.761719 38.761718zm0 0" fill="#ffb0d0"/><path d="m132.429688 499.65625c-12.398438 0-22.449219-10.046875-22.449219-22.445312v-78.980469l44.894531 13.300781v65.679688c0 12.398437-10.050781 22.445312-22.445312 22.445312zm0 0" fill="#ff85ab"/><path d="m338.5 499.65625c-12.398438 0-22.449219-10.046875-22.449219-22.445312v-78.980469l44.894531 13.300781v65.679688c.003907 12.398437-10.046874 22.445312-22.445312 22.445312zm0 0" fill="#ff85ab"/><path d="m463.753906 296.820312c0-91.371093-94.410156-165.445312-210.875-165.445312-116.460937 0-210.875 74.074219-210.875 165.445312 0 54.511719 33.605469 102.859376 85.445313 133 10.753906 6.25 17.363281 17.757813 17.363281 30.195313v17.195313c0 12.398437 10.050781 22.445312 22.445312 22.445312 12.398438 0 22.449219-10.046875 22.449219-22.445312v-11.863282c0-5.398437 4.949219-9.410156 10.238281-8.339844 16.914063 3.433594 34.652344 5.261719 52.933594 5.261719 30.90625 0 60.253906-5.226562 86.699219-14.597656 5.519531-1.957031 11.304687 2.195313 11.304687 8.050781v21.488282c0 12.398437 10.050782 22.445312 22.449219 22.445312 12.394531 0 22.445313-10.046875 22.445313-22.445312v-41.773438c0-10.320312 4.613281-20.050781 12.457031-26.753906 34.472656-29.449219 55.519531-68.726563 55.519531-111.863282zm0 0" fill="#ffc7de"/><path d="m127.449219 429.820312c10.753906 6.253907 17.363281 17.757813 17.363281 30.199219v17.191407c0 12.398437 10.050781 22.449218 22.445312 22.449218 12.398438 0 22.449219-10.050781 22.449219-22.449218v-11.863282c0-5.394531 4.949219-9.410156 10.238281-8.339844 16.914063 3.433594 34.652344 5.261719 52.933594 5.261719 30.90625 0 60.253906-5.222656 86.699219-14.597656 5.519531-1.957031 11.304687 2.195313 11.304687 8.050781v21.488282c0 12.398437 10.050782 22.449218 22.449219 22.449218 12.398438 0 22.449219-10.050781 22.449219-22.449218v-41.773438c0-10.320312 4.609375-20.050781 12.453125-26.75 7.886719-6.738281 15.082031-14.003906 21.46875-21.695312-64.457031 22.167968-129.84375 19.367187-175.265625 12.484374-30.597656-4.632812-58.734375-19.890624-78.699219-43.535156-14.304687-16.941406-29.050781-25.871094-29.050781-25.871094h-100.421875c10.578125 40.667969 40.175781 75.90625 81.183594 99.75zm0 0" fill="#ffb0d0"/><path d="m150.628906 345.28125c0-22.421875-24.316406-40.601562-54.3125-40.601562s-54.3125 18.179687-54.3125 40.601562c0 22.425781 24.316406 40.605469 54.3125 40.605469s54.3125-18.179688 54.3125-40.605469zm0 0" fill="#ffd9e8"/><path d="m244.398438 273.628906-24.242188-21.808594c-12.007812-10.800781-9.953125-30.15625 4.035156-38.230468 20.605469-11.894532 47.863282-23.246094 61.863282-10.65625 14 12.59375 5.585937 40.898437-4.066407 62.644531-6.550781 14.761719-25.582031 18.847656-37.589843 8.050781zm0 0" fill="#ffb0d0"/><g fill="#ffde55"><path d="m252.878906 71.769531c-8.28125 0-15-6.714843-15-15v-34.269531c0-8.285156 6.71875-15 15-15 8.285156 0 15 6.714844 15 15v34.269531c0 8.285157-6.714844 15-15 15zm0 0"/><path d="m196.332031 89.394531c-5.855469 5.859375-15.351562 5.859375-21.210937 0l-14.042969-14.039062c-5.855469-5.859375-5.855469-15.355469 0-21.210938 5.859375-5.859375 15.355469-5.859375 21.210937 0l14.042969 14.039063c5.859375 5.859375 5.859375 15.355468 0 21.210937zm0 0"/><path d="m309.425781 89.394531c5.859375 5.859375 15.355469 5.859375 21.210938 0l14.042969-14.039062c5.859374-5.859375 5.859374-15.355469 0-21.210938-5.859376-5.859375-15.355469-5.859375-21.210938 0l-14.042969 14.039063c-5.855469 5.859375-5.855469 15.355468 0 21.210937zm0 0"/></g><path d="m62.945312 338.371094v13.824218c0 4.582032 3.71875 8.300782 8.300782 8.300782 4.585937 0 8.304687-3.71875 8.304687-8.300782v-13.824218c0-4.582032-3.71875-8.300782-8.304687-8.300782-4.582032 0-8.300782 3.71875-8.300782 8.300782zm0 0"/><path d="m102.519531 338.371094v13.824218c0 4.582032 3.714844 8.300782 8.300781 8.300782 4.582032 0 8.300782-3.71875 8.300782-8.300782v-13.824218c0-4.582032-3.71875-8.300782-8.300782-8.300782-4.585937 0-8.300781 3.71875-8.300781 8.300782zm0 0"/><path d="m166.304688 267.371094v12.453125c0 4.140625 3.355468 7.496093 7.496093 7.496093 4.144531 0 7.5-3.355468 7.5-7.496093v-12.453125c0-4.140625-3.355469-7.5-7.5-7.5-4.140625 0-7.496093 3.359375-7.496093 7.5zm0 0"/><path d="m86.453125 259.871094c-4.140625 0-7.5 3.359375-7.5 7.5v12.453125c0 4.140625 3.359375 7.496093 7.5 7.496093 4.144531 0 7.5-3.355468 7.5-7.496093v-12.453125c0-4.140625-3.355469-7.5-7.5-7.5zm0 0"/><path d="m220.441406 207.097656c-8.777344 5.066406-14.417968 13.75-15.476562 23.824219-1.054688 10.058594 2.652344 19.710937 10.175781 26.476563l24.242187 21.804687c5.835938 5.246094 16.632813 9.265625 27.398438 7.324219 9.96875-1.800782 17.949219-8.640625 22.0625-17.90625 15.421875-34.742188 16.171875-58.71875 2.226562-71.261719-13.945312-12.542969-37.710937-9.269531-70.628906 9.738281zm54.695313 55.4375c-2.144531 4.824219-6.328125 8.222656-11.484375 9.324219-5.140625 1.097656-10.328125-.292969-14.238282-3.808594l-24.242187-21.804687c-3.910156-3.519532-5.835937-8.53125-5.289063-13.757813.546876-5.242187 3.488282-9.765625 8.058594-12.402343 17.285156-9.980469 41.921875-20.691407 53.097656-11.574219 8.558594 6.980469 6.058594 27.074219-5.902343 54.023437zm0 0"/><path d="m489.300781 238c-22.441406 0-22.699219 23.070312-22.699219 23.070312-8.550781-32.441406-28.714843-62.261718-58.871093-86.261718-3.242188-2.578125-7.960938-2.042969-10.539063 1.199218-2.578125 3.238282-2.042968 7.957032 1.199219 10.539063 37.316406 29.699219 57.863281 68.863281 57.863281 110.277344 0 39.316406-18.78125 77.019531-52.890625 106.160156-9.585937 8.1875-15.085937 20.019531-15.085937 32.453125v41.773438c0 8.242187-6.703125 14.949218-14.945313 14.949218-8.242187 0-14.949219-6.707031-14.949219-14.949218v-21.488282c0-5.203125-2.539062-10.101562-6.789062-13.105468-4.226562-2.984376-9.65625-3.738282-14.519531-2.015626-26.523438 9.402344-54.851563 14.167969-84.195313 14.167969-17.421875 0-34.730468-1.71875-51.441406-5.109375-4.746094-.964844-9.613281.238282-13.359375 3.300782-3.730469 3.050781-5.871094 7.566406-5.871094 12.386718v11.863282c0 8.242187-6.707031 14.949218-14.949219 14.949218-8.242187 0-14.945312-6.707031-14.945312-14.949218v-17.191407c0-15.0625-8.085938-29.117187-21.09375-36.683593-14.917969-8.671876-28.082031-18.753907-39.34375-30.089844 8.167969.554687 21.035156-1.144532 28.714844-3.683594 3.933594-1.296875 6.070312-5.539062 4.773437-9.472656-1.300781-3.933594-5.542969-6.066406-9.476562-4.769532-6.160157 2.035157-12.742188 3.066407-19.570313 3.066407-25.8125 0-46.8125-14.851563-46.8125-33.105469 0-18.25 21-33.101562 46.8125-33.101562s46.8125 14.851562 46.8125 33.101562c0 5.28125-1.75 10.347656-5.199218 15.054688-2.449219 3.339843-1.726563 8.03125 1.613281 10.480468 3.339843 2.449219 8.03125 1.726563 10.480469-1.613281 5.304687-7.230469 8.105468-15.503906 8.105468-23.921875 0-26.523438-27.730468-48.101562-61.8125-48.101562-18.117187 0-34.4375 6.097656-45.753906 15.792968-.699219-5.355468-1.058594-10.75-1.058594-16.148437 0-87.09375 91.234375-157.949219 203.375-157.949219 44.558594 0 86.875 11.011719 122.375 31.835938 3.570313 2.097656 8.164063.902343 10.261719-2.671876 2.097656-3.570312.898437-8.167968-2.671875-10.261718-25.488281-14.957032-54.230469-25.148438-84.726562-30.207032-.910157-24.171874-20.847657-43.558593-45.238282-43.558593-24.394531 0-44.335937 19.390625-45.242187 43.566406-40.769531 6.761719-88.519531 27.382813-125.566407 61.394531-17.78125-13.164062-58.195312-23.234375-72.140624-10.691406-13.945313 12.542969-13.199219 36.519531 2.226562 71.261719 4.671875 10.523437 14.472656 17.3125 25.355469 18.433593-1.984375 9.4375-3.007813 19.078126-3.007813 28.84375 0 10.753907 1.265625 21.496094 3.734375 31.988282-2.414062 5.140625-3.734375 10.6875-3.734375 16.472656 0 18.246094 13.121094 34.148438 32.40625 42.300781 9.984375 12.816407 21.898438 24.421875 35.570313 34.691407v54.9375c0 16.511718 13.433593 29.945312 29.949219 29.945312 6.34375 0 12.410156-2.007812 17.425781-5.597656 4.90625 3.515625 10.914062 5.597656 17.402343 5.597656 16.511719 0 29.945313-13.433594 29.945313-29.945312 0 0 .125-12.441407.367187-12.640626.253907-.207031 28.410157 5.195313 55.308594 5.195313 19.015625 0 37.632813-1.902344 55.675782-5.664063v13.105469c0 16.515625 13.433593 29.949219 29.945312 29.949219 6.347656 0 12.414062-2.011719 17.425781-5.601562 4.910157 3.519531 10.917969 5.601562 17.40625 5.601562 16.511719 0 29.945313-13.433594 29.945313-29.949219v-41.773437c0-8.039063 3.582031-15.710938 9.828125-21.046875 28.664062-24.488281 47.46875-54.65625 54.746093-87.0625 24.53125-1.109375 44.152344-21.40625 44.152344-46.210938v-20.414062c-.003906-12.515625-10.1875-22.699219-22.703125-22.699219zm-236.421875-138.988281c15.410156 0 28.15625 11.570312 30.039063 26.476562-9.875-1.070312-19.902344-1.613281-30.039063-1.613281-10.132812 0-20.164062.554688-30.039062 1.625 1.875-14.914062 14.625-26.488281 30.039062-26.488281zm-227.015625 144.445312c-11.960937-26.949219-14.113281-46.636719-5.902343-54.023437 8.054687-7.246094 26.839843-3.316406 51.664062 10.757812-13.824219 16.199219-23.976562 34.058594-30.136719 52.933594-6.597656.308594-12.847656-3.414062-15.625-9.667969zm91.617188 233.753907v-44.660157c2.039062 1.273438 19.832031 6.914063 19.832031 27.464844v17.195313c0 4.566406 1.03125 8.898437 2.867188 12.777343-2.300782 1.398438-4.972657 2.171875-7.75 2.171875-8.242188 0-14.949219-6.707031-14.949219-14.949218zm206.074219 0v-16.703126c6.257812-1.695312 19.828124-4.785156 19.828124-4.785156v21.488282c0 4.566406 1.035157 8.898437 2.871094 12.777343-2.304687 1.398438-4.976562 2.171875-7.753906 2.171875-8.242188 0-14.945312-6.707031-14.945312-14.949218zm173.449218-196.09375c0 15.652343-11.566406 28.652343-26.597656 30.914062.554688-5.035156.847656-10.105469.847656-15.207031 0-.285157-.011718-.566407-.011718-.847657 6.039062-2.242187 10.359374-8.046874 10.359374-14.859374v-20.414063c0-4.246094 3.453126-7.699219 7.699219-7.699219 4.246094 0 7.703125 3.453125 7.703125 7.699219zm0 0"/><path d="m252.878906 79.269531c12.40625 0 22.5-10.09375 22.5-22.5v-34.269531c0-12.40625-10.09375-22.5-22.5-22.5s-22.496094 10.09375-22.496094 22.5v34.269531c0 12.40625 10.089844 22.5 22.496094 22.5zm-7.5-56.769531c0-4.136719 3.363282-7.5 7.5-7.5 4.136719 0 7.5 3.363281 7.5 7.5v34.269531c0 4.136719-3.363281 7.5-7.5 7.5-4.136718 0-7.5-3.363281-7.5-7.5zm0 0"/><path d="m169.816406 94.699219c4.25 4.25 17.9375 13.765625 31.820313 0 14.175781-14.0625 4.246093-27.570313 0-31.820313l-14.042969-14.039062c-8.773438-8.773438-23.382812-9.097656-31.816406 0-13.46875 14.53125-4.25 27.566406 0 31.816406zm-3.433594-35.253907c4.34375-4.230468 9.144532-1.460937 10.605469 0l14.042969 14.042969c1.417969 1.414063 4.039062 6.3125 0 10.605469-2.925781 2.921875-7.679688 2.925781-10.605469 0l-14.042969-14.042969c-2.925781-2.921875-2.964843-7.71875 0-10.605469zm0 0"/><path d="m335.941406 94.699219 14.042969-14.042969c4.246094-4.25 13.675781-17.554688 0-31.816406-8.585937-8.957032-23.046875-8.773438-31.820313 0l-14.039062 14.039062c-4.25 4.25-13.335938 19.058594 0 31.820313 14.90625 14.265625 27.566406 4.25 31.816406 0zm-21.210937-21.210938 14.039062-14.042969c1.464844-1.460937 6.410157-3.863281 10.609375 0 3.042969 2.800782 2.921875 7.683594 0 10.605469l-14.042968 14.042969c-1.417969 1.414062-5.933594 4.28125-10.605469 0-4.144531-3.800781-1.417969-9.191406 0-10.605469zm0 0"/></svg>