<svg id="Capa_1" enable-background="new 0 0 512 512" height="512" viewBox="0 0 512 512" width="512" xmlns="http://www.w3.org/2000/svg"><g><g><g><circle cx="364.772" cy="362.523" fill="#fef0ae" r="89.138"/></g><g><path d="m453.905 362.526c0 49.225-39.906 89.131-89.131 89.131-24.913 0-47.444-10.22-63.618-26.694 12.984 7.372 27.998 11.587 43.986 11.587 49.225 0 89.131-39.906 89.131-89.131 0-24.323-9.733-46.377-25.534-62.458 26.973 15.325 45.166 44.317 45.166 77.565z" fill="#fee45a"/></g><g><path d="m203.88 239.048h-84.409c-34.137 0-61.811-27.674-61.811-61.811v-55.519c0-34.137 27.674-61.811 61.811-61.811h55.519c34.137 0 61.811 27.674 61.811 61.811v84.409c0 18.182-14.739 32.921-32.921 32.921z" fill="#94dfb6"/></g><g><path d="m392.531 239.048h-84.409c-18.182 0-32.921-14.739-32.921-32.921v-84.409c0-34.137 27.674-61.811 61.811-61.811h55.519c34.137 0 61.811 27.674 61.811 61.811v55.519c0 34.137-27.673 61.811-61.811 61.811z" fill="#94dfb6"/></g><g><path d="m174.99 452.093h-55.519c-34.137 0-61.811-27.674-61.811-61.811v-55.519c0-34.137 27.674-61.811 61.811-61.811h84.409c18.182 0 32.921 14.739 32.921 32.921v84.409c0 34.137-27.674 61.811-61.811 61.811z" fill="#94dfb6"/></g><g><path d="m236.804 121.714v84.409c0 18.182-14.745 32.927-32.927 32.927h-21.547c18.182 0 32.927-14.745 32.927-32.927v-84.409c0-34.128-27.677-61.806-61.816-61.806h21.548c34.138 0 61.815 27.678 61.815 61.806z" fill="#5dc795"/></g><g><path d="m454.34 121.714v55.52c0 34.139-27.667 61.816-61.806 61.816h-21.547c34.138 0 61.805-27.677 61.805-61.816v-55.52c0-34.128-27.667-61.806-61.805-61.806h21.547c34.139 0 61.806 27.678 61.806 61.806z" fill="#5dc795"/></g><g><path d="m236.804 305.877v84.409c0 34.128-27.677 61.806-61.816 61.806h-21.548c34.138 0 61.816-27.677 61.816-61.806v-84.409c0-18.182-14.745-32.927-32.927-32.927h21.548c18.182 0 32.927 14.745 32.927 32.927z" fill="#5dc795"/></g></g><g><g><g><path d="m471.362 9.432c-3.577 8.297-10.98 20.508-25.143 27.181-2.438 1.149-2.438 4.625 0 5.774 14.163 6.673 21.566 18.884 25.143 27.181 1.117 2.59 4.765 2.59 5.881 0 3.577-8.297 10.98-20.508 25.143-27.181 2.438-1.149 2.438-4.625 0-5.774-14.163-6.673-21.566-18.884-25.143-27.181-1.116-2.59-4.764-2.59-5.881 0z" fill="#fef0ae"/></g><g><path d="m502.383 42.386c-14.161 6.671-21.562 18.885-25.137 27.184-1.119 2.587-4.764 2.587-5.882 0-1.798-4.185-4.574-9.358-8.698-14.311 3.945-8.738 11.745-20.992 26.195-27.803.1-.05.2-.1.3-.18 3.555 3.555 7.92 6.841 13.223 9.338 2.446 1.148 2.446 4.623-.001 5.772z" fill="#fee45a"/></g></g><g><g><path d="m34.756 442.431c-3.577 8.297-10.98 20.508-25.143 27.181-2.438 1.149-2.438 4.625 0 5.774 14.163 6.673 21.566 18.884 25.143 27.181 1.117 2.59 4.765 2.59 5.881 0 3.577-8.297 10.98-20.508 25.143-27.181 2.438-1.149 2.438-4.625 0-5.774-14.163-6.673-21.566-18.884-25.143-27.181-1.116-2.59-4.764-2.59-5.881 0z" fill="#fef0ae"/></g><g><path d="m65.777 475.384c-14.161 6.671-21.562 18.885-25.137 27.184-1.119 2.587-4.764 2.587-5.882 0-1.798-4.185-4.574-9.358-8.698-14.311 3.945-8.738 11.745-20.992 26.195-27.803.1-.05.2-.1.3-.18 3.555 3.555 7.92 6.841 13.223 9.338 2.445 1.148 2.445 4.624-.001 5.772z" fill="#fee45a"/></g><g><path d="m174.99 52.417h-55.519c-38.213 0-69.301 31.088-69.301 69.301v24.295c0 4.137 3.354 7.49 7.49 7.49 4.137 0 7.49-3.354 7.49-7.49v-24.295c0-29.953 24.368-54.321 54.321-54.321h55.519c29.952 0 54.32 24.368 54.32 54.321v84.409c0 14.022-11.408 25.431-25.431 25.431h-84.409c-28.596 0-52.408-22.328-54.211-50.832-.26-4.128-3.821-7.261-7.948-7.002-4.128.261-7.263 3.819-7.002 7.948 2.3 36.373 32.68 64.866 69.161 64.866h84.409c22.283 0 40.411-18.128 40.411-40.411v-84.409c.001-38.213-31.087-69.301-69.3-69.301z"/><path d="m392.531 52.417h-55.52c-38.213 0-69.301 31.088-69.301 69.301v84.409c0 22.282 18.128 40.411 40.411 40.411h84.409c38.213 0 69.301-31.088 69.301-69.301v-55.519c.002-38.213-31.087-69.301-69.3-69.301zm54.321 124.82c0 29.953-24.368 54.321-54.321 54.321h-84.409c-14.023 0-25.431-11.408-25.431-25.431v-84.409c0-29.953 24.368-54.321 54.32-54.321h55.52c29.953 0 54.321 24.368 54.321 54.321z"/><path d="m203.88 265.462h-84.409c-38.213 0-69.301 31.088-69.301 69.301v55.519c0 38.213 31.088 69.301 69.301 69.301h55.519c38.213 0 69.301-31.088 69.301-69.301v-84.409c0-22.282-18.128-40.411-40.411-40.411zm25.431 124.82c0 29.953-24.368 54.321-54.32 54.321h-55.519c-29.953 0-54.321-24.368-54.321-54.321v-55.519c0-29.953 24.368-54.321 54.321-54.321h84.409c14.023 0 25.431 11.408 25.431 25.431v84.409z"/><path d="m364.772 265.895c-13.91 0-27.337 2.895-39.909 8.603-3.767 1.711-5.434 6.15-3.724 9.917 1.711 3.766 6.151 5.433 9.917 3.724 10.613-4.819 21.957-7.263 33.716-7.263 45.021 0 81.648 36.627 81.648 81.648s-36.627 81.648-81.648 81.648-81.648-36.627-81.648-81.648c0-20.854 7.859-40.704 22.13-55.894 2.833-3.015 2.685-7.755-.33-10.587-3.016-2.833-7.755-2.685-10.587.33-16.891 17.978-26.193 41.471-26.193 66.15 0 53.281 43.347 96.628 96.628 96.628s96.628-43.347 96.628-96.628-43.348-96.628-96.628-96.628z"/><path d="m343.948 395.449c-3.462-2.265-8.104-1.295-10.369 2.168-2.265 3.462-1.294 8.104 2.168 10.369 8.182 5.353 13.87 7.089 20.951 7.591v6.148c0 4.137 3.353 7.49 7.49 7.49s7.49-3.353 7.49-7.49v-6.827c14.066-3.23 23.096-15.093 25.063-26.794 2.518-14.979-5.31-28-19.944-33.173-1.683-.595-3.401-1.215-5.118-1.858v-28.908c3.922 1.186 6.21 3.135 6.349 3.255l1.754 1.611c3.045 2.797 7.784 2.599 10.583-.448 2.799-3.046 2.598-7.784-.448-10.583l-1.743-1.601c-.373-.343-6.481-5.839-16.494-7.59v-5.486c0-4.137-3.354-7.49-7.49-7.49-4.137 0-7.49 3.353-7.49 7.49v6.028c-.746.179-1.5.375-2.266.606-9.677 2.915-16.907 11.187-18.866 21.586-1.793 9.514 1.276 18.704 8.009 23.986 3.366 2.64 7.512 5.059 13.123 7.593v37.429c-4.52-.465-7.643-1.759-12.752-5.102zm27.73-26.44c.043.015.083.03.126.045 11.341 4.009 10.647 13.693 10.164 16.565-.889 5.291-4.388 10.879-10.29 13.55zm-18.858-25.269c-2.281-1.789-3.276-5.489-2.534-9.425.618-3.277 2.621-7.145 6.411-9.163v21.176c-1.432-.838-2.744-1.7-3.877-2.588z"/><path d="m505.579 29.838c-11.805-5.563-18.184-15.78-21.457-23.372-1.694-3.928-5.548-6.466-9.819-6.466s-8.125 2.538-9.819 6.467c-3.273 7.592-9.652 17.809-21.458 23.371-3.779 1.781-6.126 5.483-6.126 9.662s2.348 7.882 6.126 9.662c11.805 5.563 18.185 15.78 21.458 23.372 1.694 3.928 5.548 6.467 9.819 6.467s8.125-2.538 9.819-6.467c3.273-7.592 9.652-17.809 21.457-23.371 3.779-1.78 6.127-5.483 6.127-9.662s-2.348-7.883-6.127-9.663zm-31.276 28.991c-3.936-6.689-9.687-13.815-17.988-19.328 8.301-5.513 14.052-12.639 17.989-19.328 3.936 6.689 9.687 13.815 17.988 19.328-8.301 5.512-14.052 12.639-17.989 19.328z"/><path d="m68.973 462.837c-11.805-5.563-18.185-15.78-21.457-23.37-1.694-3.929-5.547-6.468-9.818-6.468-4.271 0-8.125 2.539-9.819 6.467-3.273 7.592-9.652 17.809-21.458 23.371-3.779 1.781-6.126 5.483-6.126 9.662s2.347 7.882 6.126 9.662c11.805 5.563 18.185 15.78 21.458 23.372 1.694 3.928 5.548 6.467 9.82 6.467 4.271 0 8.125-2.539 9.818-6.467 3.273-7.592 9.652-17.809 21.457-23.371 3.779-1.78 6.127-5.483 6.127-9.662s-2.35-7.883-6.128-9.663zm-31.276 28.99c-3.936-6.689-9.688-13.816-17.988-19.328 8.301-5.512 14.052-12.639 17.988-19.328 3.936 6.689 9.688 13.815 17.988 19.328-8.301 5.513-14.052 12.639-17.988 19.328z"/></g></g></g></g></svg>