<svg id="Layer_1" enable-background="new 0 0 512.5 512.5" height="512" viewBox="0 0 512.5 512.5" width="512" xmlns="http://www.w3.org/2000/svg"><g><g><path d="m453.398 512.5h-394.296c-8.284 0-15-6.716-15-15v-22.084l11.191-25.884-11.191-9.237v-61.224l11.191-22.199-11.191-12.922v-61.223l11.191-26.727-11.191-8.393v-79.107c0-8.284 6.716-15 15-15h394.297c8.284 0 15 6.716 15 15v79.107l-11.234 8.393 11.234 26.727v61.224l-11.234 6.756 11.234 28.365v61.224l-11.234 10.22 11.234 24.901v22.083c-.001 8.284-6.716 15-15.001 15z" fill="#392e6e"/></g><path d="m468.398 168.5c0-8.284-6.716-15-15-15h-197.148v359h197.148c8.284 0 15-6.716 15-15v-22.084l-11.234-24.901 11.234-10.22v-61.224l-11.234-28.365 11.234-6.756v-61.224l-11.233-26.726 11.234-8.393v-79.107z" fill="#2b2256"/><g><path d="m133.25 103.507c-3.909 0-7.67-1.526-10.475-4.264-2.894-2.822-4.525-6.694-4.525-10.736v-43.424c0-17.948 10.195-33.672 26.606-41.036 16.381-7.353 34.921-4.552 48.384 7.308l71.418 62.896c4.632 4.08 6.292 10.581 4.184 16.382-2.109 5.801-7.557 9.718-13.728 9.87l-121.494 2.999c-.123.003-.247.005-.37.005z" fill="#ffd321"/></g><g><g><path d="m379.25 103.506c-.123 0-.246-.002-.37-.005l-121.494-2.999c-6.171-.152-11.618-4.069-13.728-9.87-2.108-5.801-.448-12.302 4.184-16.382l71.418-62.897c13.465-11.858 32.003-14.657 48.386-7.306 16.409 7.363 26.604 23.087 26.604 41.035v43.424c0 4.042-1.632 7.914-4.525 10.736-2.805 2.736-6.566 4.264-10.475 4.264z" fill="#ff9d21"/></g></g><g><path d="m256.25 116c-31.981 0-58-26.019-58-58s26.019-58 58-58 58 26.019 58 58-26.019 58-58 58z" fill="#ff7d47"/></g><g><path d="m475.25 197.5h-438c-8.284 0-15-6.716-15-15v-86c0-8.284 6.716-15 15-15h438c8.284 0 15 6.716 15 15v86c0 8.284-6.716 15-15 15z" fill="#ff9d21"/></g><path d="m468.398 247.607-36.237-22.057c-4.79-2.918-10.808-2.915-15.598-.001l-48.239 29.362-48.238-29.361c-4.789-2.916-10.809-2.916-15.598 0l-48.238 29.361-48.238-29.361c-4.789-2.916-10.809-2.916-15.598 0l-48.238 29.361-48.238-29.361c-4.79-2.918-10.808-2.915-15.598-.001l-36.238 22.058v35.121l44.037-26.805 48.238 29.361c4.789 2.916 10.809 2.916 15.598 0l48.238-29.361 48.238 29.361c4.789 2.916 10.809 2.916 15.598 0l48.238-29.361 48.238 29.361c4.791 2.917 10.809 2.916 15.598.001l48.239-29.362 44.036 26.804z" fill="#ff9d21"/><path d="m468.398 343.95-36.237-22.057c-4.79-2.915-10.808-2.914-15.598 0l-48.239 29.362-48.238-29.362c-4.791-2.914-10.807-2.914-15.598 0l-48.238 29.362-48.238-29.362c-4.791-2.914-10.807-2.914-15.598 0l-48.238 29.362-48.238-29.362c-4.79-2.915-10.808-2.914-15.598 0l-36.238 22.057v35.121l44.037-26.804 48.238 29.361c4.791 2.914 10.807 2.914 15.598 0l48.238-29.361 48.238 29.361c4.791 2.914 10.807 2.914 15.598 0l48.238-29.361 48.238 29.361c4.791 2.915 10.809 2.915 15.598 0l48.239-29.361 44.036 26.804z" fill="#ff9d21"/><path d="m468.398 440.295-36.237-22.057c-4.79-2.915-10.808-2.915-15.598 0l-48.239 29.362-48.238-29.361c-4.791-2.914-10.807-2.914-15.598 0l-48.238 29.361-48.238-29.361c-4.791-2.914-10.807-2.914-15.598 0l-48.238 29.361-48.238-29.361c-4.79-2.915-10.808-2.915-15.598 0l-36.238 22.057v35.121l44.037-26.805 48.238 29.362c4.791 2.914 10.807 2.914 15.598 0l48.238-29.362 48.238 29.362c4.791 2.914 10.807 2.914 15.598 0l48.238-29.362 48.238 29.362c4.791 2.916 10.809 2.914 15.598 0l48.239-29.362 44.036 26.804z" fill="#ff9d21"/><path d="m256.25 0v116c31.981 0 58-26.019 58-58s-26.019-58-58-58z" fill="#ff405c"/><g fill="#ff7d43"><path d="m475.25 81.5h-219v116h219c8.284 0 15-6.716 15-15v-86c0-8.284-6.716-15-15-15z"/><path d="m432.161 225.55c-4.79-2.918-10.808-2.915-15.598-.001l-48.239 29.362-48.238-29.361c-4.789-2.916-10.809-2.916-15.598 0l-48.238 29.361v32.56c2.702 0 5.404-.729 7.799-2.187l48.238-29.361 48.238 29.361c4.791 2.917 10.809 2.916 15.598.001l48.239-29.362 44.036 26.804v-35.119z"/><path d="m432.161 321.894c-4.79-2.915-10.808-2.914-15.598 0l-48.239 29.362-48.238-29.362c-4.791-2.914-10.807-2.914-15.598 0l-48.238 29.362v32.559c2.702 0 5.403-.729 7.799-2.186l48.238-29.361 48.238 29.361c4.791 2.915 10.809 2.915 15.598 0l48.239-29.361 44.036 26.804v-35.122z"/><path d="m432.161 418.238c-4.79-2.915-10.808-2.915-15.598 0l-48.239 29.362-48.238-29.361c-4.791-2.914-10.807-2.914-15.598 0l-48.238 29.361v32.56c2.702 0 5.403-.729 7.799-2.186l48.238-29.362 48.238 29.362c4.791 2.916 10.809 2.914 15.598 0l48.239-29.362 44.036 26.804v-35.121z"/></g></g></svg>